<svg width="138" height="25" viewBox="0 0 138 25" fill="none" xmlns="http://www.w3.org/2000/svg">
<path d="M18.5707 23.7011H1.12085V1H9.95992C11.8517 1 13.3955 1.33704 14.5915 2.01111C15.7657 2.66344 16.6789 3.55496 17.3313 4.68567C17.9836 5.81637 18.3097 7.06667 18.3097 8.43656C18.3097 10.1326 17.7879 11.6547 16.7442 13.0029C15.7004 14.3293 14.3849 15.2099 12.7976 15.6448L18.5707 23.7011ZM3.17569 2.20681L12.0474 14.6011C13.5042 14.2967 14.7111 13.5682 15.6678 12.4158C16.6246 11.2633 17.1029 9.93692 17.1029 8.43656C17.1029 7.24062 16.8094 6.15341 16.2223 5.17491C15.6352 4.19642 14.8089 3.44624 13.7434 2.92437C12.7867 2.446 11.5364 2.20681 9.99254 2.20681H3.17569ZM2.32766 2.98961V14.6989H10.7101L2.32766 2.98961ZM2.32766 22.4943H16.2875L11.5255 15.8731L10.5144 15.9057H2.32766V22.4943Z" fill="white" stroke="white"/>
<circle cx="11.7962" cy="8.17035" r="1.35489" fill="white"/>
<path d="M28.0086 11.8224C28.6315 11.1994 29.5659 10.8879 30.8118 10.8879H31.4737V13.0682H30.5003C29.4361 13.0682 28.6834 13.3927 28.2422 14.0416C28.0864 14.2492 28.0086 14.4828 28.0086 14.7424V23.0742H24.2709V10.8879H28.0086V11.8224Z" fill="white"/>
<path d="M36.9728 19.8038C36.9728 20.5305 37.5049 20.8939 38.5691 20.8939H39.5425C40.1135 20.8939 40.5677 20.7901 40.9052 20.5825C41.4502 20.1931 41.7228 19.8038 41.7228 19.4144V10.8879H45.4604V23.0742H41.7228V22.3345C41.0479 22.8276 40.2173 23.0742 39.231 23.0742H37.8294C35.8308 23.0742 34.4292 22.5162 33.6245 21.4001C33.365 21.0367 33.2352 20.6214 33.2352 20.1542V10.8879H36.9728V19.8038Z" fill="white"/>
<path d="M55.2433 20.8939C56.3075 20.8939 56.8396 20.5305 56.8396 19.8038V14.1194C56.7877 13.4186 56.2556 13.0682 55.2433 13.0682H53.686C52.6218 13.0682 52.0897 13.4316 52.0897 14.1584V19.8038C52.0897 20.5305 52.6218 20.8939 53.686 20.8939H55.2433ZM48.3521 13.769C48.3521 12.9125 48.7933 12.2247 49.6758 11.7056C50.5843 11.1605 51.6744 10.8879 52.9463 10.8879H55.0876C55.6846 10.8879 56.0999 10.9528 56.3335 11.0826L56.8396 11.3162V7.18924H60.5773V23.0742H56.8396V22.7238C56.2686 22.9574 55.6327 23.0742 54.9319 23.0742H52.9463C50.9477 23.0742 49.546 22.5162 48.7414 21.4001C48.4818 21.0367 48.3521 20.6344 48.3521 20.1931V13.769Z" fill="white"/>
<path d="M70.0877 20.8939C71.1259 20.8939 71.645 20.5305 71.645 19.8038V18.5968C71.5931 17.896 71.074 17.5456 70.0877 17.5456H68.8029C67.7387 17.5456 67.2066 17.909 67.2066 18.6358V19.8038C67.2066 20.5305 67.7387 20.8939 68.8029 20.8939H70.0877ZM68.9586 13.0682C67.8944 13.0682 67.3623 13.4316 67.3623 14.1584V14.5477H63.6247V13.769C63.6247 12.8865 64.0659 12.1857 64.9484 11.6666C65.8569 11.1475 66.934 10.8879 68.1799 10.8879H70.8274C72.0733 10.8879 73.1375 11.1475 74.02 11.6666C74.9284 12.1857 75.3827 12.8865 75.3827 13.769V23.0742H71.645V22.7238C71.074 22.9574 70.4381 23.0742 69.7373 23.0742H68.0631C66.0645 23.0742 64.6629 22.5162 63.8583 21.4001C63.5987 21.0367 63.4689 20.6344 63.4689 20.1931V18.2464C63.4689 17.3899 63.9102 16.7021 64.7927 16.1829C65.7011 15.6379 66.7913 15.3653 68.0631 15.3653H69.9319C70.6327 15.3653 71.2038 15.5081 71.645 15.7936V14.1584C71.645 13.4316 71.1259 13.0682 70.0877 13.0682H68.9586Z" fill="white"/>
<path d="M86.3649 14.1584C86.3649 13.4316 85.8458 13.0682 84.8076 13.0682H84.1068C83.5617 13.0682 83.0556 13.211 82.5884 13.4965C82.1471 13.782 81.9265 14.1324 81.9265 14.5477V23.0742H78.1889V10.8879H81.9265V11.6277C82.783 11.1345 83.6266 10.8879 84.4572 10.8879H85.5473C87.1047 10.8879 88.3246 11.2513 89.2071 11.9781C90.2194 11.2513 91.3485 10.8879 92.5943 10.8879H93.6845C95.6831 10.8879 97.0847 11.446 97.8893 12.5621C98.1489 12.8995 98.2787 13.3018 98.2787 13.769V23.0742H94.5021V14.1584C94.5021 13.4316 93.983 13.0682 92.9448 13.0682H92.2829C91.4263 13.0682 90.7774 13.3278 90.3362 13.8469C90.2064 14.0026 90.1285 14.1714 90.1026 14.3531V23.0742H86.3649V14.1584Z" fill="white"/>
<path d="M107.83 20.8939C108.868 20.8939 109.388 20.5305 109.388 19.8038V18.5968C109.336 17.896 108.817 17.5456 107.83 17.5456H106.545C105.481 17.5456 104.949 17.909 104.949 18.6358V19.8038C104.949 20.5305 105.481 20.8939 106.545 20.8939H107.83ZM106.701 13.0682C105.637 13.0682 105.105 13.4316 105.105 14.1584V14.5477H101.367V13.769C101.367 12.8865 101.808 12.1857 102.691 11.6666C103.599 11.1475 104.677 10.8879 105.922 10.8879H108.57C109.816 10.8879 110.88 11.1475 111.763 11.6666C112.671 12.1857 113.125 12.8865 113.125 13.769V23.0742H109.388V22.7238C108.817 22.9574 108.181 23.0742 107.48 23.0742H105.806C103.807 23.0742 102.405 22.5162 101.601 21.4001C101.341 21.0367 101.211 20.6344 101.211 20.1931V18.2464C101.211 17.3899 101.653 16.7021 102.535 16.1829C103.444 15.6379 104.534 15.3653 105.806 15.3653H107.674C108.375 15.3653 108.946 15.5081 109.388 15.7936V14.1584C109.388 13.4316 108.868 13.0682 107.83 13.0682H106.701Z" fill="white"/>
<path d="M119.669 11.8224C120.292 11.1994 121.226 10.8879 122.472 10.8879H123.134V13.0682H122.161C121.097 13.0682 120.344 13.3927 119.903 14.0416C119.747 14.2492 119.669 14.4828 119.669 14.7424V23.0742H115.931V10.8879H119.669V11.8224Z" fill="white"/>
<path d="M128.633 19.8038C128.633 20.5305 129.165 20.8939 130.23 20.8939H131.203C131.774 20.8939 132.228 20.7901 132.566 20.5825C133.111 20.1931 133.383 19.8038 133.383 19.4144V10.8879H137.121V23.0742H133.383V22.3345C132.708 22.8276 131.878 23.0742 130.891 23.0742H129.49C127.491 23.0742 126.09 22.5162 125.285 21.4001C125.025 21.0367 124.896 20.6214 124.896 20.1542V10.8879H128.633V19.8038Z" fill="white"/>
</svg>
